<?xml version="1.0"?>
<svg width="550" height="550" xmlns="http://www.w3.org/2000/svg" xmlns:svg="http://www.w3.org/2000/svg">
    <path fill="#44bf73" id="leaf" d="m409.895251,162.513655c24.93479,-45.094255 57.065892,-82.256382 89.546541,-118.601087c-21.262509,-12.911469 -40.441338,-27.924299 -62.751128,-39.792569c-8.828436,55.957407 -22.075851,107.503996 -45.927999,148.443133c-5.304406,-29.88965 -25.527796,-46.281626 -48.222495,-58.910193c-23.401953,-13.033879 -53.044064,-21.081615 -85.728728,-21.424361c-67.707347,-0.714055 -117.34299,27.661799 -147.684195,66.56894c-32.049495,41.086028 -44.421003,98.607555 -52.795165,161.444369c-8.179667,61.362461 -28.600271,116.654777 -54.332083,160.709913a552.759949,552.759949 0 0 0 205.075152,52.800605c60.860583,3.371698 126.001413,2.000713 165.315225,-16.83809c-56.12742,-0.816063 -89.760077,-32.585377 -84.956189,-87.237084c3.680442,-41.836805 40.480781,-75.634035 85.724648,-75.765965c46.945357,-0.13601 78.622184,29.50474 81.898675,72.69893a70.921274,70.921274 0 0 1 -11.48608,45.15546c-1.746374,2.644043 -5.198318,4.9535 -4.588992,8.424485c55.188948,-19.901045 87.590711,-77.14511 88.013703,-153.818265c0.412112,-78.246795 -37.806817,-148.127589 -117.100892,-143.858222z"/>
</svg>